<?xml version="1.0" standalone="no"?>
<!DOCTYPE svg PUBLIC "-//W3C//DTD SVG 20010904//EN"
 "http://www.w3.org/TR/2001/REC-SVG-20010904/DTD/svg10.dtd">
<svg version="1.0" xmlns="http://www.w3.org/2000/svg"
 width="202.000000pt" height="249.000000pt" viewBox="0 0 202.000000 249.000000"
 preserveAspectRatio="xMidYMid meet">
<metadata>
Created by potrace 1.16, written by Peter Selinger 2001-2019
</metadata>
<g transform="translate(0.000000,249.000000) scale(0.100000,-0.100000)"
fill="#000000" stroke="none">
<path d="M843 2461 c-3 -12 -9 -21 -14 -21 -5 0 -9 -5 -9 -11 0 -5 5 -7 12 -3
8 5 9 2 5 -9 -5 -13 -1 -16 18 -15 33 3 74 -21 91 -54 8 -16 18 -27 22 -24 5
3 14 0 22 -5 13 -8 13 -10 0 -20 -12 -9 -12 -10 4 -5 24 8 39 -13 23 -32 -9
-11 -4 -20 21 -42 18 -15 32 -31 32 -36 0 -15 54 -64 71 -64 10 0 21 -4 24
-10 12 -20 27 -10 21 13 -4 12 -9 41 -12 65 -3 33 -1 42 11 42 8 0 15 7 15 16
0 9 8 23 18 30 15 12 15 15 2 23 -8 6 -15 14 -15 19 0 39 -204 146 -298 157
-54 6 -59 5 -64 -14z"/>
<path d="M680 2345 c-10 -12 -10 -19 -2 -27 17 -17 15 -38 -4 -60 -16 -17 -17
-17 -30 8 -8 15 -14 33 -14 40 0 8 -7 14 -16 14 -12 0 -15 -7 -12 -25 4 -18
-1 -29 -18 -40 -27 -17 -29 -14 -14 18 10 22 10 22 -6 0 -18 -25 -43 -30 -62
-11 -8 8 -15 8 -24 0 -18 -15 -66 -3 -73 18 -7 21 -45 30 -92 23 -19 -3 -33
-1 -33 5 0 26 -35 17 -97 -28 -81 -57 -153 -120 -137 -120 19 0 28 -48 30
-145 1 -49 5 -105 9 -122 5 -22 4 -33 -4 -33 -6 0 -11 11 -11 24 0 14 -4 27
-9 30 -5 4 -7 -11 -4 -32 4 -28 -1 -50 -18 -83 -18 -34 -23 -61 -23 -121 -1
-71 2 -79 27 -106 19 -20 27 -38 27 -64 0 -20 5 -40 11 -43 6 -4 8 -13 5 -20
-3 -8 2 -19 10 -25 8 -7 14 -19 14 -27 0 -7 9 -24 21 -36 20 -22 20 -21 -1 28
-12 28 -28 64 -36 82 -19 41 -18 55 3 51 10 -2 20 -14 22 -28 1 -14 12 -37 22
-51 10 -15 19 -30 19 -33 0 -4 12 -24 26 -45 14 -21 26 -50 28 -65 3 -26 32
-66 48 -66 5 0 22 -10 38 -21 16 -12 46 -23 70 -24 23 -1 50 -10 63 -22 21
-18 54 -35 88 -46 9 -3 22 -18 29 -34 16 -34 99 -81 110 -62 5 6 17 9 29 6 12
-3 19 -1 15 4 -3 5 -22 9 -43 9 -48 0 -59 13 -63 75 l-3 50 -48 3 c-37 2 -47
7 -43 17 13 34 27 97 22 102 -10 11 -44 -9 -54 -32 -12 -25 -51 -41 -76 -32
-25 10 -46 52 -46 93 0 34 1 52 9 114 0 6 6 10 13 10 6 0 19 7 29 16 15 13 24
14 50 5 27 -9 34 -8 44 6 11 14 20 15 60 7 27 -5 51 -16 55 -24 38 -82 45 -93
49 -75 2 10 -3 35 -9 56 -15 44 0 94 29 104 10 3 28 15 40 26 17 16 21 27 16
50 -5 22 -3 29 8 29 9 0 21 13 28 29 9 19 23 31 41 35 19 4 28 12 28 26 0 13
13 26 42 40 43 21 83 27 74 11 -10 -16 33 0 46 18 12 14 11 15 -5 2 -28 -22
-71 1 -64 35 2 13 1 27 -4 30 -11 6 -47 -12 -76 -39 -34 -31 -28 -1 6 34 16
16 40 30 53 30 13 1 37 2 54 3 17 0 37 6 45 12 8 6 22 14 32 17 9 4 17 13 17
21 0 19 -30 29 -47 15 -7 -7 -17 -9 -21 -5 -4 4 2 14 12 22 17 12 18 14 3 14
-9 0 -33 22 -53 50 -36 50 -36 50 -53 29 -15 -19 -20 -20 -39 -8 -12 8 -22 21
-22 31 0 22 -38 48 -70 48 -24 0 -26 -3 -25 -42 0 -24 3 -47 7 -53 9 -15 -9
-55 -25 -55 -9 0 -12 -10 -9 -35 3 -26 0 -36 -13 -41 -21 -9 -36 6 -44 47 -5
26 -13 35 -38 41 -17 4 -36 15 -43 23 -7 8 -21 15 -30 15 -13 0 -21 10 -25 32
-7 28 -3 36 29 65 19 18 30 33 23 34 -6 0 2 5 20 10 23 7 31 14 27 24 -5 11
-2 13 10 9 9 -3 16 -1 16 6 0 6 8 9 19 5 23 -7 44 17 44 50 0 20 4 25 27 25
15 0 36 -10 50 -25 20 -21 22 -28 12 -50 -11 -24 -9 -29 20 -56 18 -16 39 -29
48 -28 10 0 11 2 3 6 -21 8 -14 25 7 18 15 -5 18 -3 14 9 -3 8 -12 17 -20 20
-15 6 -20 36 -5 36 5 0 14 -7 21 -15 9 -11 15 -12 25 -2 16 15 2 35 -28 39
-12 2 -27 13 -33 26 -13 27 -79 63 -100 55 -8 -3 -14 1 -14 11 0 10 -6 13 -15
10 -8 -4 -15 -12 -15 -20 0 -8 -5 -14 -11 -14 -6 0 -9 9 -6 20 6 24 4 25 -13
5z"/>
<path d="M1732 2024 c-9 -19 -10 -36 -2 -65 8 -27 8 -45 0 -59 -7 -13 -7 -20
-1 -20 13 0 61 -70 61 -87 0 -7 -11 -13 -25 -13 -30 0 -30 0 -6 -70 13 -41 23
-56 39 -58 25 -4 49 33 34 51 -12 14 -11 98 0 91 7 -5 12 14 11 44 -1 19 9 14
34 -15 17 -21 21 -23 16 -8 -17 48 -89 164 -143 228 -4 4 -12 -4 -18 -19z"/>
<path d="M1883 1659 c-13 -5 -23 -15 -23 -24 0 -14 -11 -19 -35 -16 -6 0 -11
-7 -12 -17 -1 -9 -4 -40 -6 -67 -2 -28 -12 -65 -21 -82 -9 -18 -16 -41 -16
-51 0 -11 -7 -33 -15 -48 -18 -35 -19 -64 -4 -64 9 0 10 -22 6 -75 -6 -70 -5
-78 23 -130 17 -31 30 -62 30 -71 0 -12 7 -13 37 -8 21 4 44 13 51 21 17 17
32 17 32 -1 0 -8 5 -16 12 -18 17 -6 -35 -204 -72 -279 -17 -32 -28 -59 -25
-59 10 0 73 136 104 222 33 96 57 217 67 348 8 104 -18 300 -41 313 -9 4 -28
32 -43 61 -24 48 -29 53 -49 45z"/>
<path d="M763 1062 c-40 -42 -48 -59 -48 -98 -1 -31 -9 -50 -33 -79 -24 -30
-29 -42 -20 -52 8 -10 8 -17 0 -25 -19 -19 -14 -36 18 -70 17 -17 30 -35 30
-40 0 -17 61 -98 74 -98 7 0 23 -11 35 -24 21 -22 23 -32 17 -83 -10 -100 -21
-168 -30 -181 -5 -8 -10 -49 -12 -93 -3 -70 -1 -80 16 -89 17 -9 20 -7 20 10
0 11 7 23 15 26 8 4 12 10 9 16 -3 5 3 18 15 29 12 11 19 24 16 30 -4 5 1 9
10 9 8 0 18 7 21 15 4 8 15 15 26 15 35 0 60 19 53 41 -6 17 -3 19 17 14 29
-7 138 75 138 104 0 20 70 61 102 61 22 0 67 55 94 117 13 28 29 55 36 60 22
14 55 57 63 81 5 16 2 24 -12 29 -10 3 -26 13 -35 21 -12 10 -29 13 -53 9 -26
-4 -35 -2 -35 8 0 18 -52 33 -58 17 -2 -7 -8 -10 -12 -7 -5 3 -7 12 -3 20 6
18 -8 20 -25 3 -9 -9 -12 -8 -12 4 0 9 4 19 9 23 6 3 6 16 0 34 -11 30 -45 51
-84 51 -13 0 -41 15 -62 35 -21 19 -44 35 -50 35 -7 0 -13 4 -13 8 0 5 -20 8
-43 8 -24 -1 -56 5 -70 13 -21 11 -29 12 -42 1 -8 -7 -13 -16 -10 -20 3 -5 1
-11 -5 -15 -6 -4 -10 5 -10 19 0 32 -31 36 -57 8z"/>
</g>
</svg>
